<?xml version="1.0" encoding="utf-8"?>
<!-- Generator: Adobe Illustrator 24.3.0, SVG Export Plug-In . SVG Version: 6.00 Build 0)  -->
<svg version="1.1" baseProfile="tiny" id="Ebene_1" xmlns="http://www.w3.org/2000/svg" xmlns:xlink="http://www.w3.org/1999/xlink"
     x="0px" y="0px" viewBox="0 0 215.433075 59.5275574" overflow="visible" xml:space="preserve">
<g>
	<path fill="#333F48" d="M49.7596092,20.3185062h13.6493073v-4.2536926H49.7596092V20.3185062L49.7596092,20.3185062z
		 M52.5670128,7.4557137h8.0345001v1.9954534h-8.0345001V7.4557137L52.5670128,7.4557137z M55.6390038,5.6711068h1.8905182
		V1.4173229h-1.8905182V5.6711068L55.6390038,5.6711068z M69.994606,24.4103031h41.7564087v4.2537231H69.994606V24.4103031
		L69.994606,24.4103031z M1.4173229,28.6640263h41.7565918v-4.2537231H1.4173229V28.6640263L1.4173229,28.6640263z
		 M111.7500076,38.2862206H1.4173229v-1.994812h110.3326874V38.2862206L111.7500076,38.2862206z M111.7500076,53.9630089H1.4173229
		v4.2537842h110.3326874V53.9630089L111.7500076,53.9630089z M134.355011,58.2179222l-0.6119995-8.2065125
		c-0.0569763-0.8417053-0.095993-1.8937988-0.095993-2.2955017c-0.094986,0.4400024-0.2669983,1.2816772-0.5160065,2.1233826
		l-2.4100037,8.3786316h-1.875l-2.1999893-8.0152283c-0.2490082-0.8799133-0.496994-2.0658875-0.5740051-2.5058899
		c0,0.4400024-0.076004,1.7025146-0.1340027,2.525116l-0.5740051,7.9960022h-2.1609955l1.2050018-13.2375183h2.927002
		l2.0270004,7.4987183c0.3059998,1.1094666,0.4210052,1.8555908,0.4980011,2.2572937
		c0.0570221-0.4017029,0.2290039-1.3008118,0.4779968-2.2189941l2.0850067-7.5370178h2.927002l1.1669922,13.2375183H134.355011
		L134.355011,58.2179222z M147.3950195,57.5293236c0,0-0.5930023-0.478302-0.5930023-1.9320984v-7.2882996l-2.0270081,0.3825684
		v6.9248352c-0.3259888,0.6886597-1.1859894,1.2625732-1.8939972,1.2625732c-1.2440033,0-1.4160004-0.8800049-1.4160004-2.085083
		v-6.4848938l-2.0659943,0.3825684v6.5614014c0,1.2051392,0.1530151,1.8364258,0.5359955,2.2955322
		c0.4779968,0.5738831,1.3200073,0.9563904,2.4100037,0.9563904c1.1100006,0,2.0469971-0.3825073,2.7550049-1.1860046
		c0.1719971,0.5548096,0.42099,0.8991089,0.8420105,1.2052002L147.3950195,57.5293236L147.3950195,57.5293236z
		 M155.3010101,58.2179222V51.790493c0-1.3200073-0.3059998-1.6833801-1.1089783-1.6833801
		c-0.6120148,0-1.4920197,0.4591064-2.1240082,1.0903015v7.0205078h-2.0660095v-7.1160889
		c0-1.013916-0.094986-1.6069336-0.3629913-2.2955017l1.9130096-0.535614
		c0.2289886,0.4398804,0.3439789,0.8608093,0.3439789,1.3772888c1.0330048-0.8800049,1.9320221-1.3390808,2.9649963-1.3390808
		c1.4920197,0,2.5250092,0.8990784,2.5250092,2.6780701v7.2309265H155.3010101L155.3010101,58.2179222z M167.3970184,55.1954918
		c0-1.1286926-0.5169983-2.1998596-2.4679871-2.6972656l-1.2050171-0.3059998
		c-0.9759979-0.2487183-1.3009796-0.5548096-1.3009796-1.1478271c0-0.7460022,0.5739746-1.2433777,1.4729767-1.2433777
		c0.7649994,0,1.4730072,0.2295837,2.3720093,0.7077942l0.6889954-1.4537964
		c-0.822998-0.4400024-1.875-0.8417053-3.1950073-0.8417053c-2.1419983,0-3.5959778,1.2625122-3.5959778,3.0797729
		c0,1.3582153,0.8609924,2.3529358,2.3139801,2.6590271l1.1670074,0.2486877
		c1.0910034,0.2294922,1.5690002,0.6121216,1.5690002,1.3580933c0,0.8035278-0.6500092,1.3582153-1.5690002,1.3582153
		c-1.0899811,0-2.276001-0.51651-3.1370087-1.0137939l-0.7459869,1.5112
		c1.243988,0.6885681,2.5249939,1.0711975,3.7109985,1.0711975
		C165.8090363,58.485714,167.3970184,57.1466942,167.3970184,55.1954918L167.3970184,55.1954918z M172.5810089,58.46661
		c-1.875,0-2.5249939-1.1094971-2.5249939-2.4868164v-5.9874878h-1.071991v-1.4537964h1.071991
		c0-0.8226013,0-1.6642761,0.0950012-2.3912048l2.1620026-0.51651c-0.0960083,0.7843018-0.1719971,1.9512024-0.1719971,2.9077148
		h2.3139954l-0.5540009,1.4537964h-1.779007v5.4327087c0,1.2051697,0.2670135,1.549469,1.1860046,1.549469
		c0.2859955,0,0.5350037-0.057373,0.8990021-0.1912537l0.2669983,1.2624817
		C173.8430176,58.3326988,173.2310333,58.46661,172.5810089,58.46661L172.5810089,58.46661z M183.9010315,53.951992v-0.4398804
		c0-2.2572937-0.4210205-3.4432983-1.2619934-4.2084961c-0.8230286-0.7460022-1.7030182-0.9946899-2.6590271-0.9946899
		c-1.2249756,0-2.1809998,0.4016724-2.9649963,1.3007812c-0.8419952,0.9565125-1.2059937,2.0851135-1.2059937,3.7875977
		c0,3.098999,1.7220154,5.0691833,4.4580078,5.0691833c1.2999878,0,2.46698-0.4207764,3.4809875-1.2815857l-0.8220062-1.2817078
		c-0.7269897,0.6313171-1.5119781,0.9565125-2.4109955,0.9565125c-1.8939819,0-2.3909912-1.4155884-2.3909912-2.7546082V53.951992
		H183.9010315L183.9010315,53.951992z M181.7200165,52.4026146h-3.5769806c0-1.5686035,0.6509857-2.506012,1.8369751-2.506012
		C181.0320129,49.8966026,181.7200165,50.8340111,181.7200165,52.4026146L181.7200165,52.4026146z M191.0170135,50.3749046
		c-0.2099762-0.0765076-0.3629913-0.1338806-0.5930023-0.1338806c-0.8799896,0-1.6259766,0.6503906-1.8170013,1.4346924v6.5422058
		h-2.1039886v-6.8292236c0-1.2241821-0.1340027-2.0084839-0.3450012-2.6014709l1.9320068-0.497406
		c0.230011,0.4400024,0.3639832,0.9946899,0.3639832,1.5302734c0.7650146-1.0520935,1.5299988-1.5493774,2.4680176-1.5493774
		c0.3059845,0,0.496994,0.038208,0.7460022,0.1529846L191.0170135,50.3749046L191.0170135,50.3749046z M142.4030151,46.0546227
		c0-0.7460327-0.5740051-1.3390198-1.2819977-1.3390198c-0.7080078,0-1.2819977,0.5929871-1.2819977,1.3390198
		c0,0.7268982,0.5739899,1.3390808,1.2819977,1.3390808C141.82901,47.3937035,142.4030151,46.7815208,142.4030151,46.0546227
		L142.4030151,46.0546227z M145.1190186,47.3937035c-0.7080078,0-1.2819824-0.6121826-1.2819824-1.3390808
		c0-0.7460327,0.5739746-1.3390198,1.2819824-1.3390198s1.2819977,0.5929871,1.2819977,1.3390198
		C146.4010162,46.7815208,145.8270264,47.3937035,145.1190186,47.3937035L145.1190186,47.3937035z M132.6530151,33.9273949
		v-9.5263996h-2.1999969v8.8952045c0,1.7598877-0.7850037,2.6972046-2.3910065,2.6972046
		c-1.6259995,0-2.3530045-0.6694946-2.3530045-2.6972046v-8.8952045h-2.2189941v9.5456257
		c0,2.123291,1.0899963,3.9214783,4.5719986,3.9214783C130.9690094,37.8680992,132.6530151,36.3568993,132.6530151,33.9273949
		L132.6530151,33.9273949z M141.1710358,37.638485v-6.4273701c0-1.3200073-0.306015-1.6834106-1.1100006-1.6834106
		c-0.6120148,0-1.4920197,0.4591064-2.1230164,1.0904236v7.0203571h-2.0660095v-7.1160908
		c0-1.0137939-0.0959778-1.6069031-0.3639984-2.2955017l1.9130249-0.5355835
		c0.2299957,0.4399109,0.3450012,0.8607788,0.3450012,1.3772888c1.0329742-0.8799744,1.9319763-1.3391113,2.9649811-1.3391113
		c1.4920044,0,2.5249939,0.8991089,2.5249939,2.6781311v7.2308674H141.1710358L141.1710358,37.638485z M148.5340118,37.638485
		v-9.9089985l-2.1239777,0.3826294v9.5263691H148.5340118L148.5340118,37.638485z M147.4620209,26.5244083
		c-0.7649994,0-1.3580017-0.6312866-1.3580017-1.3964844c0-0.7843323,0.6119995-1.4155273,1.3970184-1.4155273
		c0.7459717,0,1.3769836,0.6120911,1.3769836,1.4155273C148.8780212,25.8931217,148.2470093,26.5244083,147.4620209,26.5244083
		L147.4620209,26.5244083z M159.3890228,27.9591007h-2.2000122l-1.6060028,4.9162312
		c-0.3639984,1.0903931-0.5739746,2.2380676-0.5739746,2.2380676h-0.0390167c0,0-0.2669983-1.1476746-0.5930023-2.1615906
		l-1.6829987-5.2223225l-2.1620026,0.3061218l3.4820251,9.6412067h1.8559875L159.3890228,27.9591007L159.3890228,27.9591007z
		 M162.8610229,33.3727074v0.1530151c0,1.3389893,0.496994,2.7545776,2.3910065,2.7545776
		c0.8990021,0,1.6839905-0.3251953,2.4100037-0.9564819l0.8229828,1.2817078
		c-1.0140076,0.8607788-2.1809998,1.2816772-3.4819946,1.2816772c-2.7350006,0-4.4570007-1.9703064-4.4570007-5.0693054
		c0-1.702486,0.3639984-2.8310871,1.2050171-3.7875996c0.7849731-0.8990784,1.7409821-1.3008118,2.9659729-1.3008118
		c0.9560089,0,1.8359985,0.2487183,2.6590271,0.9947205c0.8409729,0.7651978,1.2619781,1.9512024,1.2619781,4.208498v0.4400024
		H162.8610229L162.8610229,33.3727074z M164.7170105,29.3173161c-1.1859894,0-1.8369751,0.9372864-1.8369751,2.5058899h3.5769806
		C166.457016,30.2546024,165.7690125,29.3173161,164.7170105,29.3173161L164.7170105,29.3173161z M176.4040222,27.8443241
		c-0.2480011-0.1148376-0.4390106-0.1530151-0.7460022-0.1530151c-0.9370117,0-1.7020111,0.4973145-2.4670105,1.549408
		c0-0.535614-0.1339722-1.0903015-0.3639984-1.530304l-1.9319916,0.4973755
		c0.2109985,0.5930176,0.3450012,1.3773193,0.3450012,2.601593v6.8291035h2.1039886v-6.5421772
		c0.1910095-0.7843018,0.9370117-1.4346924,1.8170013-1.4346924c0.230011,0,0.3830261,0.0574036,0.5930023,0.1339111
		L176.4040222,27.8443241L176.4040222,27.8443241z M181.0240173,37.9063072c-1.1860046,0-2.4680023-0.3825989-3.7109985-1.0711975
		l0.7460022-1.5112c0.8609924,0.4973145,2.0469971,1.0137939,3.1369934,1.0137939
		c0.9179993,0,1.5690002-0.5546875,1.5690002-1.3581848c0-0.7460327-0.4779968-1.1286011-1.5690002-1.3581238l-1.1669922-0.2486877
		c-1.4530029-0.3060913-2.3140106-1.3007812-2.3140106-2.6589985c0-1.8173218,1.45401-3.0798035,3.5960083-3.0798035
		c1.3199921,0,2.371994,0.4017029,3.1949921,0.8417053l-0.6889954,1.4537964
		c-0.8989868-0.4781799-1.6069946-0.7077942-2.371994-0.7077942c-0.8990021,0-1.4730072,0.497406-1.4730072,1.2434082
		c0,0.5929871,0.3250122,0.8990784,1.3009949,1.1477661l1.2050018,0.3061218
		c1.951004,0.4973164,2.4680023,1.5686054,2.4680023,2.6972065C184.9460144,36.567318,183.358017,37.9063072,181.0240173,37.9063072
		L181.0240173,37.9063072z M189.5230103,37.638485v-9.9089985l-2.1230011,0.3826294v9.5263691H189.5230103L189.5230103,37.638485z
		 M188.4520111,26.5244083c-0.7649994,0-1.3579865-0.6312866-1.3579865-1.3964844
		c0-0.7843323,0.6119843-1.4155273,1.3959961-1.4155273c0.7460022,0,1.3769989,0.6120911,1.3769989,1.4155273
		C189.8670197,25.8931217,189.2360229,26.5244083,188.4520111,26.5244083L188.4520111,26.5244083z M197.2240143,37.4663963
		l-0.2669983-1.2626038c-0.3639984,0.1339111-0.6130066,0.1913147-0.8999786,0.1913147
		c-0.9180145,0-1.1860199-0.3442993-1.1860199-1.549469v-5.4327412h1.780014l0.5539856-1.4537964h-2.3139954
		c0-0.9564819,0.0759888-2.1233826,0.1719971-2.9076843l-2.1619873,0.51651
		c-0.0950165,0.7268677-0.0950165,1.568573-0.0950165,2.3911743h-1.0720062v1.4537964h1.0720062v5.9874897
		c0,1.3773193,0.6499939,2.4868164,2.5249939,2.4868164C195.9810181,37.8872032,196.5930176,37.7533226,197.2240143,37.4663963
		L197.2240143,37.4663963z M207.1890259,36.7011986l-1.0910034,1.3390198
		c-0.5930023-0.2295227-1.0899963-0.6887207-1.3200073-1.3008118c-0.7839966,0.8799744-1.6260071,1.1861267-2.6589966,1.1861267
		c-2.2189941,0-3.2129974-1.2243347-3.2129974-2.9077148c0-2.2381287,1.6829987-3.3668232,4.7819977-3.3668232h0.6499939v-0.5164795
		c0-1.1095276-0.190979-1.7025146-1.3390045-1.7025146c-1.3959961,0-2.8879852,1.1094971-2.8879852,1.1094971l-0.9379883-1.5112
		c1.4539795-0.9181824,2.6589813-1.3198853,4.1129761-1.3198853c1.5110168,0,2.5250244,0.5546875,2.9459991,1.6069031
		c0.1720123,0.4207764,0.1720123,0.9372864,0.1529999,2.3719788l-0.0379944,2.7737141
		C206.3280182,35.7638206,206.4430084,36.1846886,207.1890259,36.7011986L207.1890259,36.7011986z M203.9170227,33.0666161
		c-2.1040039,0-2.7350006,0.6120911-2.7350006,1.8363953c0,0.9182129,0.496994,1.4920959,1.3390045,1.4920959
		c0.6699829,0,1.3199921-0.4017029,1.7409973-1.013916l0.0379944-2.2955017
		C204.3000183,33.0856895,204.0710144,33.0666161,203.9170227,33.0666161L203.9170227,33.0666161z M202.2530212,25.4751835
		c0-0.7459717-0.5740051-1.3389587-1.2810059-1.3389587c-0.7079773,0-1.2819977,0.5929871-1.2819977,1.3389587
		c0,0.7270203,0.5740204,1.3391113,1.2819977,1.3391113C201.6790161,26.8142948,202.2530212,26.2022038,202.2530212,25.4751835
		L202.2530212,25.4751835z M204.9700165,26.8142948c-0.7079926,0-1.2819977-0.6120911-1.2819977-1.3391113
		c0-0.7459717,0.5740051-1.3389587,1.2819977-1.3389587c0.707016,0,1.2810059,0.5929871,1.2810059,1.3389587
		C206.2510223,26.2022038,205.6770325,26.8142948,204.9700165,26.8142948L204.9700165,26.8142948z M214.0160217,37.4663963
		l-0.2680054-1.2626038c-0.3639984,0.1339111-0.6119995,0.1913147-0.8990021,0.1913147
		c-0.9179993,0-1.1859894-0.3442993-1.1859894-1.549469v-5.4327412h1.7789917l0.5549927-1.4537964h-2.3149872
		c0-0.9564819,0.076004-2.1233826,0.1719971-2.9076843l-2.1610107,0.51651
		c-0.095993,0.7268677-0.095993,1.568573-0.095993,2.3911743h-1.0709991v1.4537964h1.0709991v5.9874897
		c0,1.3773193,0.6499939,2.4868164,2.5249939,2.4868164C212.7720337,37.8872032,213.3840179,37.7533226,214.0160217,37.4663963
		L214.0160217,37.4663963z"/>
</g>
</svg>