<?xml version="1.0" encoding="UTF-8" standalone="no"?>
<!-- Created with Inkscape (http://www.inkscape.org/) -->

<svg
   xmlns:dc="http://purl.org/dc/elements/1.1/"
   xmlns:cc="http://creativecommons.org/ns#"
   xmlns:rdf="http://www.w3.org/1999/02/22-rdf-syntax-ns#"
   xmlns:svg="http://www.w3.org/2000/svg"
   xmlns="http://www.w3.org/2000/svg"
   xmlns:sodipodi="http://sodipodi.sourceforge.net/DTD/sodipodi-0.dtd"
   xmlns:inkscape="http://www.inkscape.org/namespaces/inkscape"
   version="1.1"
   id="svg2"
   xml:space="preserve"
   width="179.87067"
   height="64.640663"
   viewBox="0 0 179.87067 64.640664"
   sodipodi:docname="logo-rero.svg"
   inkscape:version="0.92.4 5da689c313, 2019-01-14"
   inkscape:export-filename="/home/igor/Documents/organisation/logo-modeles/logo_rero-plus-square.svg.png"
   inkscape:export-xdpi="192"
   inkscape:export-ydpi="192"><metadata
     id="metadata8"><rdf:RDF><cc:Work
         rdf:about=""><dc:format>image/svg+xml</dc:format><dc:type
           rdf:resource="http://purl.org/dc/dcmitype/StillImage" /><dc:title></dc:title></cc:Work></rdf:RDF></metadata><defs
     id="defs6" /><sodipodi:namedview
     pagecolor="#ffffff"
     bordercolor="#666666"
     borderopacity="1"
     objecttolerance="10"
     gridtolerance="10"
     guidetolerance="10"
     inkscape:pageopacity="0"
     inkscape:pageshadow="2"
     inkscape:window-width="1600"
     inkscape:window-height="844"
     id="namedview4"
     showgrid="false"
     inkscape:zoom="3.704479"
     inkscape:cx="70.69808"
     inkscape:cy="48.431519"
     inkscape:window-x="0"
     inkscape:window-y="28"
     inkscape:window-maximized="1"
     inkscape:current-layer="g12"
     fit-margin-top="0"
     fit-margin-left="0"
     fit-margin-right="0"
     fit-margin-bottom="0" /><g
     id="g10"
     inkscape:groupmode="layer"
     inkscape:label="ink_ext_XXXXXX"
     transform="matrix(1.3333333,0,0,-1.3333333,-186.736,257.40786)"><g
       id="g12"
       transform="scale(0.1)"><path
         d="m 1400.52,1815.188 h 90.19 v -56.973 h 1.43 c 19.59,41.211 59.38,65.976 106.66,65.976 11.29,0 21.76,-2.168 32.27,-5.214 v -87.09 c -14.94,3.769 -29.26,6.738 -43.52,6.738 -84.86,0 -96.84,-71.328 -96.84,-90.883 v -192.984 h -90.19 v 360.43"
         style="fill:#3160a7;fill-opacity:1;fill-rule:nonzero;stroke:none"
         id="path314"
         inkscape:connector-curvature="0"
         inkscape:export-xdpi="192"
         inkscape:export-ydpi="192" /><path
         d="m 2186.93,1647.742 c 0,19.555 12.03,90.883 96.87,90.883 14.24,0 28.52,-2.969 43.54,-6.738 v 87.09 c -10.53,3.046 -21.02,5.214 -32.27,5.214 -47.36,0 -87.13,-24.765 -106.68,-65.976 h -1.46 v 56.973 h -90.14 v -283.735 h 90.14 v 116.289"
         style="fill:#49a3d3;fill-opacity:1;fill-rule:nonzero;stroke:none"
         id="path318"
         inkscape:connector-curvature="0"
         inkscape:export-xdpi="192"
         inkscape:export-ydpi="192" /><path
         d="m 2553.51,1526.867 c -66.01,0 -105.86,51.817 -105.86,108.223 0,56.269 39.85,108.047 105.86,108.047 66.13,0 105.9,-51.778 105.9,-108.047 0,-56.406 -39.77,-108.223 -105.9,-108.223 z m 0,297.324 c -108.87,0 -195.96,-75.781 -195.96,-189.101 0,-39.766 10.86,-74.785 29.42,-103.598 h 63.32 v -59.414 c 29.92,-16.89 65.21,-26.324 103.22,-26.324 108.93,0 196.04,75.859 196.04,189.336 0,113.32 -87.11,189.101 -196.04,189.101"
         style="fill:#49a3d3;fill-opacity:1;fill-rule:nonzero;stroke:none"
         id="path320"
         inkscape:connector-curvature="0"
         inkscape:export-xdpi="192"
         inkscape:export-ydpi="192" /><path
         d="m 1844.55,1756.672 c 56.28,0 90.84,-33.012 91.6,-85.645 h -184.73 c 6.78,51.778 39.79,85.645 93.13,85.645 z m 3.67,-238.828 c -50.22,0 -90.78,32.285 -96.8,85.586 h 274.83 v 24.824 c 0,125.351 -68.36,195.937 -168.97,195.937 -108.87,0 -196.03,-75.781 -196.03,-189.101 0,-110.43 82.57,-185.039 187.34,-188.969 v 71.742 c -0.12,0 -0.22,-0.019 -0.37,-0.019"
         style="fill:#3160a7;fill-opacity:1;fill-rule:nonzero;stroke:none"
         id="path324"
         inkscape:connector-curvature="0"
         inkscape:export-xdpi="192"
         inkscape:export-ydpi="192" /><path
         d="m 1910.56,1930.188 c -16.01,-24.668 -37.71,-44.844 -63.42,-59.219 v 59.59 l 63.42,-0.039 v -0.332"
         style="fill:#3160a7;fill-opacity:1;fill-rule:nonzero;stroke:none"
         id="path326"
         inkscape:connector-curvature="0"
         inkscape:export-xdpi="192"
         inkscape:export-ydpi="192" /></g></g></svg>
