<?xml version="1.0" encoding="UTF-8" standalone="no"?>
<!-- Created with Inkscape (http://www.inkscape.org/) -->

<svg
   xmlns:dc="http://purl.org/dc/elements/1.1/"
   xmlns:cc="http://creativecommons.org/ns#"
   xmlns:rdf="http://www.w3.org/1999/02/22-rdf-syntax-ns#"
   xmlns:svg="http://www.w3.org/2000/svg"
   xmlns="http://www.w3.org/2000/svg"
   xmlns:xlink="http://www.w3.org/1999/xlink"
   xmlns:sodipodi="http://sodipodi.sourceforge.net/DTD/sodipodi-0.dtd"
   xmlns:inkscape="http://www.inkscape.org/namespaces/inkscape"
   width="28.099937mm"
   height="10.420284mm"
   viewBox="0 0 28.099937 10.420284"
   version="1.1"
   id="svg10127"
   inkscape:version="0.92.2 5c3e80d, 2017-08-06"
   sodipodi:docname="invenio-rdm.svg">
  <defs
     id="defs10121" />
  <sodipodi:namedview
     id="base"
     pagecolor="#ffffff"
     bordercolor="#666666"
     borderopacity="1.0"
     inkscape:pageopacity="0.0"
     inkscape:pageshadow="2"
     inkscape:zoom="27.061003"
     inkscape:cx="53.102244"
     inkscape:cy="19.691876"
     inkscape:document-units="mm"
     inkscape:current-layer="layer1"
     showgrid="false"
     inkscape:pagecheckerboard="true"
     fit-margin-top="0"
     fit-margin-left="0"
     fit-margin-right="0"
     fit-margin-bottom="0"
     inkscape:window-width="3440"
     inkscape:window-height="1395"
     inkscape:window-x="0"
     inkscape:window-y="1"
     inkscape:window-maximized="1" />
  <metadata
     id="metadata10124">
    <rdf:RDF>
      <cc:Work
         rdf:about="">
        <dc:format>image/svg+xml</dc:format>
        <dc:type
           rdf:resource="http://purl.org/dc/dcmitype/StillImage" />
        <dc:title></dc:title>
      </cc:Work>
    </rdf:RDF>
  </metadata>
  <g
     inkscape:label="Layer 1"
     inkscape:groupmode="layer"
     id="layer1"
     transform="translate(1132.8595,273.66252)">
    <a
       transform="matrix(0.26458333,0,0,0.26458333,-1270.3722,-333.42314)"
       style="display:inline"
       id="a9715"
       xlink:href="http://inveniosoftware.org/product/rdm">
      <g
         transform="translate(0.9420447)"
         id="g20930">
        <text
           xml:space="preserve"
           style="font-style:normal;font-variant:normal;font-weight:bold;font-stretch:condensed;font-size:43.3795929px;line-height:1.25;font-family:'DIN Condensed';-inkscape-font-specification:'DIN Condensed, Bold Condensed';font-variant-ligatures:normal;font-variant-caps:normal;font-variant-numeric:normal;font-feature-settings:normal;text-align:start;letter-spacing:0px;word-spacing:0px;writing-mode:lr-tb;text-anchor:start;fill:#fb8273;fill-opacity:1;stroke:none;stroke-width:8.78323174;stroke-miterlimit:4;stroke-dasharray:none"
           x="540.30389"
           y="271.53845"
           id="text19212"
           transform="scale(1.0429084,0.95885697)"><tspan
             y="271.53845"
             x="540.30389"
             id="tspan19218"
             sodipodi:role="line"
             style="stroke-width:8.78323174">RDM</tspan></text>
        <g
           transform="matrix(0.43046721,0,0,0.43046721,198.64479,126.38329)"
           id="g20690">
          <g
             id="g20682"
             transform="translate(474.21725,226.44114)">
            <g
               id="g20680">
              <g
                 id="g20678">
                <path
                   inkscape:connector-curvature="0"
                   d="m 328.162,4.665 c -18.767,0 -34.032,15.268 -34.032,34.034 0,7.28 2.306,14.028 6.214,19.568 l -30.078,26.432 c -1.881,1.878 0.067,6.867 1.944,8.749 1.879,1.876 6.87,3.822 8.748,1.943 l 26.265,-29.894 c 5.779,4.525 13.047,7.233 20.939,7.233 18.768,0 34.034,-15.267 34.034,-34.032 0,-18.765 -15.266,-34.033 -34.034,-34.033 z m 0,56.722 c -12.51,0 -22.689,-10.177 -22.689,-22.688 0,-12.511 10.18,-22.69 22.689,-22.69 12.513,0 22.688,10.18 22.688,22.69 0,12.51 -10.175,22.688 -22.688,22.688 z"
                   id="path20676"
                   style="fill:#ffffff" />
              </g>
            </g>
          </g>
          <g
             id="g20688"
             transform="matrix(0.38742049,0,0,0.38742049,670.93796,251.12579)">
            <path
               inkscape:connector-curvature="0"
               d="m 375.104,38.079 c 0.174,18.184 -8.123,32.126 -11.51,37.52 8.183,-5.347 19.898,-19.36 19.674,-37.661 0.174,-18.183 -11.431,-32.127 -19.631,-37.52 3.323,5.347 11.691,19.36 11.467,37.661 z"
               id="path20684"
               style="fill:#ffffff" />
            <path
               inkscape:connector-curvature="0"
               d="m 375.104,38.079 c 0.174,18.184 -8.123,32.126 -11.51,37.52 8.183,-5.347 19.898,-19.36 19.674,-37.661 0.174,-18.183 -11.431,-32.127 -19.631,-37.52 3.323,5.347 11.691,19.36 11.467,37.661 z"
               id="path20686"
               style="fill:none;stroke:#ffffff" />
          </g>
        </g>
      </g>
    </a>
  </g>
</svg>
