<?xml version="1.0" encoding="UTF-8" standalone="no"?>
<!-- Created with Inkscape (http://www.inkscape.org/) -->

<svg
   xmlns:dc="http://purl.org/dc/elements/1.1/"
   xmlns:cc="http://creativecommons.org/ns#"
   xmlns:rdf="http://www.w3.org/1999/02/22-rdf-syntax-ns#"
   xmlns:svg="http://www.w3.org/2000/svg"
   xmlns="http://www.w3.org/2000/svg"
   xmlns:xlink="http://www.w3.org/1999/xlink"
   xmlns:sodipodi="http://sodipodi.sourceforge.net/DTD/sodipodi-0.dtd"
   xmlns:inkscape="http://www.inkscape.org/namespaces/inkscape"
   width="22.700464mm"
   height="10.420284mm"
   viewBox="0 0 22.700464 10.420284"
   version="1.1"
   id="svg14694"
   inkscape:version="0.92.2 5c3e80d, 2017-08-06"
   sodipodi:docname="invenio-ils.svg">
  <defs
     id="defs14688" />
  <sodipodi:namedview
     id="base"
     pagecolor="#ffffff"
     bordercolor="#666666"
     borderopacity="1.0"
     inkscape:pageopacity="0.0"
     inkscape:pageshadow="2"
     inkscape:zoom="30.012377"
     inkscape:cx="42.898515"
     inkscape:cy="19.691876"
     inkscape:document-units="mm"
     inkscape:current-layer="layer1"
     showgrid="false"
     inkscape:pagecheckerboard="true"
     fit-margin-top="0"
     fit-margin-left="0"
     fit-margin-right="0"
     fit-margin-bottom="0"
     inkscape:window-width="3440"
     inkscape:window-height="1395"
     inkscape:window-x="0"
     inkscape:window-y="1"
     inkscape:window-maximized="1" />
  <metadata
     id="metadata14691">
    <rdf:RDF>
      <cc:Work
         rdf:about="">
        <dc:format>image/svg+xml</dc:format>
        <dc:type
           rdf:resource="http://purl.org/dc/dcmitype/StillImage" />
        <dc:title></dc:title>
      </cc:Work>
    </rdf:RDF>
  </metadata>
  <g
     inkscape:label="Layer 1"
     inkscape:groupmode="layer"
     id="layer1"
     transform="translate(65.022848,-143.62319)">
    <a
       transform="matrix(0.26458333,0,0,0.26458333,-295.29378,83.333406)"
       style="display:inline"
       id="a9728"
       xlink:href="http://inveniosoftware.org/product/ils">
      <g
         transform="translate(1.7274613,2)"
         id="g25604">
        <g
           id="g20666"
           transform="matrix(0.43046721,0,0,0.43046721,548.44181,126.38329)">
          <g
             transform="translate(474.21725,226.44114)"
             id="g20614">
            <g
               id="g20612">
              <g
                 id="g20610">
                <path
                   style="fill:#ffffff"
                   id="path20608"
                   d="m 328.162,4.665 c -18.767,0 -34.032,15.268 -34.032,34.034 0,7.28 2.306,14.028 6.214,19.568 l -30.078,26.432 c -1.881,1.878 0.067,6.867 1.944,8.749 1.879,1.876 6.87,3.822 8.748,1.943 l 26.265,-29.894 c 5.779,4.525 13.047,7.233 20.939,7.233 18.768,0 34.034,-15.267 34.034,-34.032 0,-18.765 -15.266,-34.033 -34.034,-34.033 z m 0,56.722 c -12.51,0 -22.689,-10.177 -22.689,-22.688 0,-12.511 10.18,-22.69 22.689,-22.69 12.513,0 22.688,10.18 22.688,22.69 0,12.51 -10.175,22.688 -22.688,22.688 z"
                   inkscape:connector-curvature="0" />
              </g>
            </g>
          </g>
          <g
             transform="matrix(0.38742049,0,0,0.38742049,670.93796,251.12579)"
             id="g20620">
            <path
               style="fill:#ffffff"
               id="path20616"
               d="m 375.104,38.079 c 0.174,18.184 -8.123,32.126 -11.51,37.52 8.183,-5.347 19.898,-19.36 19.674,-37.661 0.174,-18.183 -11.431,-32.127 -19.631,-37.52 3.323,5.347 11.691,19.36 11.467,37.661 z"
               inkscape:connector-curvature="0" />
            <path
               style="fill:none;stroke:#ffffff"
               id="path20618"
               d="m 375.104,38.079 c 0.174,18.184 -8.123,32.126 -11.51,37.52 8.183,-5.347 19.898,-19.36 19.674,-37.661 0.174,-18.183 -11.431,-32.127 -19.631,-37.52 3.323,5.347 11.691,19.36 11.467,37.661 z"
               inkscape:connector-curvature="0" />
          </g>
        </g>
        <text
           xml:space="preserve"
           style="font-style:normal;font-variant:normal;font-weight:bold;font-stretch:condensed;font-size:40.2457695px;line-height:1.25;font-family:'DIN Condensed';-inkscape-font-specification:'DIN Condensed, Bold Condensed';font-variant-ligatures:normal;font-variant-caps:normal;font-variant-numeric:normal;font-feature-settings:normal;text-align:start;letter-spacing:0px;word-spacing:0px;writing-mode:lr-tb;text-anchor:start;fill:#7be9ff;fill-opacity:1;stroke:none;stroke-width:8.14874935;stroke-miterlimit:4;stroke-dasharray:none"
           x="871.71057"
           y="271.87613"
           id="text10216"
           transform="scale(1.0488268,0.95344626)"><tspan
             y="271.87613"
             x="871.71057"
             id="tspan10252"
             style="font-style:normal;font-variant:normal;font-weight:bold;font-stretch:condensed;font-size:40.2457695px;font-family:'DIN Condensed';-inkscape-font-specification:'DIN Condensed, Bold Condensed';font-variant-ligatures:normal;font-variant-caps:normal;font-variant-numeric:normal;font-feature-settings:normal;text-align:start;writing-mode:lr-tb;text-anchor:start;fill:#7be9ff;fill-opacity:1;stroke-width:8.14874935">ILS</tspan></text>
      </g>
    </a>
  </g>
</svg>
