<?xml version="1.0" encoding="UTF-8" standalone="no"?>
<svg
   xmlns:dc="http://purl.org/dc/elements/1.1/"
   xmlns:cc="http://creativecommons.org/ns#"
   xmlns:rdf="http://www.w3.org/1999/02/22-rdf-syntax-ns#"
   xmlns:svg="http://www.w3.org/2000/svg"
   xmlns="http://www.w3.org/2000/svg"
   viewBox="0 0 263 263"
   height="263"
   width="263"
   xml:space="preserve"
   id="svg2"
   version="1.1">
<metadata id="metadata8">
    <rdf:RDF>
        <cc:Work rdf:about="">
            <dc:format>image/svg+xml</dc:format>
            <dc:type rdf:resource="http://purl.org/dc/dcmitype/StillImage" />
        </cc:Work>
    </rdf:RDF>
</metadata>
<g transform="matrix(1.3333333,0,0,-1.3333333,0,831.496)" id="g10">
    <g transform="translate(-160.7202,110)" id="g12">
        <g transform="translate(290.7202,458.9557)" id="g20"><path
             id="path22"
             style="fill:#b3d132;fill-opacity:1;fill-rule:nonzero;stroke:none"
             d="M 0,0 C 2.487,0.289 4.68,2.029 5.425,4.587 6.42,7.993 4.465,11.56 1.054,12.552 -2.354,13.547 -5.92,11.591 -6.913,8.181 -7.282,6.918 -7.244,5.631 -6.878,4.46 c 0,0 -0.409,-3.464 -0.591,-4.923 -0.355,-2.839 -5.689,-11.721 -8.706,-13.499 -3.018,-1.775 -6.92,-1.95 -9.225,2.488 -1.914,3.684 -2.446,15.652 -2.446,15.652 2.409,1.102 4.096,3.636 4.096,6.585 0,3.959 -3.046,7.172 -6.801,7.172 -3.756,0 -6.802,-3.213 -6.802,-7.172 0,-2.88 1.609,-5.363 3.928,-6.506 0,0 -0.519,-12.091 -2.408,-15.731 -2.306,-4.438 -6.208,-4.263 -9.226,-2.488 -3.017,1.778 -7.77,10.794 -8.706,13.499 -0.405,1.171 -1.153,3.965 -1.153,3.965 0.904,1.102 1.22,3.323 0.823,4.679 -0.991,3.41 -4.559,5.366 -7.966,4.371 -3.411,-0.992 -5.366,-4.559 -4.371,-7.965 0.72,-2.472 2.791,-4.182 5.176,-4.552 0,0 1.04,-1.566 1.276,-2.627 0.71,-3.196 1.421,-12.256 0.355,-15.274 -1.066,-3.017 -4.971,-6.214 -8.167,-4.439 -3.197,1.779 -8.168,7.107 -10.3,10.125 -1.066,1.507 -2.036,4.902 -2.036,4.902 0.432,1.613 0.203,3.399 -0.785,4.913 -1.837,2.825 -5.618,3.625 -8.443,1.785 -2.831,-1.84 -3.629,-5.623 -1.786,-8.445 1.096,-1.686 4.669,-2.74 4.669,-2.74 0.711,-0.704 1.865,-1.909 2.876,-3.258 1.598,-2.132 4.439,-8.878 4.439,-11.896 0,-3.021 -1.066,-9.06 -2.664,-8.525 -1.598,0.532 -7.103,4.261 -9.589,6.215 -1.553,1.221 -3.833,4.212 -3.833,4.212 -0.225,1.946 -1.382,4.456 -3.255,5.428 -2.988,1.555 -6.675,0.395 -8.228,-2.599 -1.562,-2.994 -0.398,-6.678 2.598,-8.233 1.382,-0.721 2.911,-0.858 4.312,-0.504 0,0 2.494,-1.92 4.146,-3.097 2.485,-1.779 6.39,-10.478 6.569,-12.075 0.178,-1.6 -0.711,-1.6 -1.243,-1.068 -0.342,0.344 -1.485,1.048 -2.402,1.604 0,0 -1.464,2.18 -2.763,2.856 -3.3,1.717 -7.369,0.436 -9.083,-2.87 -1.723,-3.306 -0.439,-7.371 2.869,-9.084 2.151,-1.122 4.627,-0.968 6.566,0.189 0,0 1.836,0.127 2.327,0.027 0.888,-0.178 4.084,-3.021 6.038,-5.507 1.953,-2.485 4.794,-8.699 4.794,-8.699 l 0.113,2.101 c -0.862,2.023 -0.841,4.412 0.26,6.496 1.881,3.611 6.28,4.929 9.818,2.959 3.54,-1.964 4.863,-6.489 2.973,-10.087 -0.94,-1.799 -4.174,-3.423 -4.174,-3.423 -0.246,-0.397 -0.556,-0.889 -0.823,-1.242 -0.532,-0.711 7.625,-6.207 14.197,-9.404 6.571,-3.196 14.75,-3.735 18.479,-2.671 3.728,1.065 4.792,2.308 5.326,2.661 0.196,0.131 0.386,0.759 0.386,0.759 -1.451,1.407 -2.358,3.437 -2.358,5.692 0,4.257 3.244,7.714 7.249,7.714 4.001,0 7.245,-3.457 7.245,-7.714 0,-2.149 -2.006,-5.153 -2.006,-5.153 -0.194,-0.628 -0.285,-1.167 -0.089,-1.298 0.533,-0.353 1.597,-1.596 5.326,-2.661 3.728,-1.064 11.908,-0.525 18.479,2.671 6.571,3.197 14.728,8.693 14.196,9.404 -0.266,0.353 -0.802,1.198 -0.802,1.198 -1.642,0.584 -3.081,1.775 -3.968,3.467 -1.891,3.598 -0.567,8.123 2.973,10.087 3.537,1.97 7.937,0.652 9.818,-2.959 1.161,-2.201 1.12,-4.739 0.107,-6.832 l 0.04,-1.765 c 0,0 2.84,6.214 4.794,8.699 1.954,2.486 5.149,5.329 6.037,5.507 0.491,0.1 2.193,-0.055 2.193,-0.055 1.932,-1.132 4.387,-1.276 6.522,-0.161 3.308,1.713 4.592,5.778 2.868,9.084 -1.713,3.306 -5.783,4.587 -9.081,2.87 -1.358,-0.704 -2.375,-1.806 -2.982,-3.086 0,0 -1.663,-1.03 -2.006,-1.374 -0.532,-0.532 -1.421,-0.532 -1.242,1.068 0.178,1.597 4.083,10.296 6.569,12.075 1.651,1.177 4.029,3.192 4.029,3.192 1.49,-0.47 3.159,-0.37 4.656,0.409 2.994,1.555 4.158,5.239 2.596,8.233 -1.552,2.994 -5.239,4.154 -8.228,2.599 -1.8,-0.934 -2.938,-2.637 -3.223,-4.497 0,0 -2.537,-3.922 -4.091,-5.143 -2.486,-1.954 -7.99,-5.683 -9.589,-6.215 -1.598,-0.535 -2.664,5.504 -2.664,8.525 0,3.018 2.842,9.764 4.44,11.896 1.011,1.349 2.755,3.22 2.755,3.22 1.958,0.031 3.867,1.006 5.015,2.778 1.845,2.822 1.046,6.605 -1.785,8.445 -2.826,1.84 -6.607,1.04 -8.443,-1.785 -0.923,-1.415 -1.183,-3.066 -0.863,-4.593 0,0 -1.119,-3.715 -2.184,-5.222 -2.132,-3.018 -7.104,-8.346 -10.3,-10.125 -3.196,-1.775 -7.101,1.422 -8.167,4.439 -1.066,3.018 -0.356,12.078 0.355,15.274 C -1.018,-1.531 0,0 0,0" /></g><g
           transform="translate(290.7202,458.9557)"
           id="g24"><path
             id="path26"
             style="fill:none;stroke:#6fb92c;stroke-width:2.99000001;stroke-linecap:butt;stroke-linejoin:miter;stroke-miterlimit:4;stroke-dasharray:none;stroke-opacity:1"
             d="M 0,0 C 2.487,0.289 4.68,2.029 5.425,4.587 6.42,7.993 4.465,11.56 1.054,12.552 -2.354,13.547 -5.92,11.591 -6.913,8.181 -7.282,6.918 -7.244,5.631 -6.878,4.46 c 0,0 -0.409,-3.464 -0.591,-4.923 -0.355,-2.839 -5.689,-11.721 -8.706,-13.499 -3.018,-1.775 -6.92,-1.95 -9.225,2.488 -1.914,3.684 -2.446,15.652 -2.446,15.652 2.409,1.102 4.096,3.636 4.096,6.585 0,3.959 -3.046,7.172 -6.801,7.172 -3.756,0 -6.802,-3.213 -6.802,-7.172 0,-2.88 1.609,-5.363 3.928,-6.506 0,0 -0.519,-12.091 -2.408,-15.731 -2.306,-4.438 -6.208,-4.263 -9.226,-2.488 -3.017,1.778 -7.77,10.794 -8.706,13.499 -0.405,1.171 -1.153,3.965 -1.153,3.965 0.904,1.102 1.22,3.323 0.823,4.679 -0.991,3.41 -4.559,5.366 -7.966,4.371 -3.411,-0.992 -5.366,-4.559 -4.371,-7.965 0.72,-2.472 2.791,-4.182 5.176,-4.552 0,0 1.04,-1.566 1.276,-2.627 0.71,-3.196 1.421,-12.256 0.355,-15.274 -1.066,-3.017 -4.971,-6.214 -8.167,-4.439 -3.197,1.779 -8.168,7.107 -10.3,10.125 -1.066,1.507 -2.036,4.902 -2.036,4.902 0.432,1.613 0.203,3.399 -0.785,4.913 -1.837,2.825 -5.618,3.625 -8.443,1.785 -2.831,-1.84 -3.629,-5.623 -1.786,-8.445 1.096,-1.686 4.669,-2.74 4.669,-2.74 0.711,-0.704 1.865,-1.909 2.876,-3.258 1.598,-2.132 4.439,-8.878 4.439,-11.896 0,-3.021 -1.066,-9.06 -2.664,-8.525 -1.598,0.532 -7.103,4.261 -9.589,6.215 -1.553,1.221 -3.833,4.212 -3.833,4.212 -0.225,1.946 -1.382,4.456 -3.255,5.428 -2.988,1.555 -6.675,0.395 -8.228,-2.599 -1.562,-2.994 -0.398,-6.678 2.598,-8.233 1.382,-0.721 2.911,-0.858 4.312,-0.504 0,0 2.494,-1.92 4.146,-3.097 2.485,-1.779 6.39,-10.478 6.569,-12.075 0.178,-1.6 -0.711,-1.6 -1.243,-1.068 -0.342,0.344 -1.485,1.048 -2.402,1.604 0,0 -1.464,2.18 -2.763,2.856 -3.3,1.717 -7.369,0.436 -9.083,-2.87 -1.723,-3.306 -0.439,-7.371 2.869,-9.084 2.151,-1.122 4.627,-0.968 6.566,0.189 0,0 1.836,0.127 2.327,0.027 0.888,-0.178 4.084,-3.021 6.038,-5.507 1.953,-2.485 4.794,-8.699 4.794,-8.699 l 0.113,2.101 c -0.862,2.023 -0.841,4.412 0.26,6.496 1.881,3.611 6.28,4.929 9.818,2.959 3.54,-1.964 4.863,-6.489 2.973,-10.087 -0.94,-1.799 -4.174,-3.423 -4.174,-3.423 -0.246,-0.397 -0.556,-0.889 -0.823,-1.242 -0.532,-0.711 7.625,-6.207 14.197,-9.404 6.571,-3.196 14.75,-3.735 18.479,-2.671 3.728,1.065 4.792,2.308 5.326,2.661 0.196,0.131 0.386,0.759 0.386,0.759 -1.451,1.407 -2.358,3.437 -2.358,5.692 0,4.257 3.244,7.714 7.249,7.714 4.001,0 7.245,-3.457 7.245,-7.714 0,-2.149 -2.006,-5.153 -2.006,-5.153 -0.194,-0.628 -0.285,-1.167 -0.089,-1.298 0.533,-0.353 1.597,-1.596 5.326,-2.661 3.728,-1.064 11.908,-0.525 18.479,2.671 6.571,3.197 14.728,8.693 14.196,9.404 -0.266,0.353 -0.802,1.198 -0.802,1.198 -1.642,0.584 -3.081,1.775 -3.968,3.467 -1.891,3.598 -0.567,8.123 2.973,10.087 3.537,1.97 7.937,0.652 9.818,-2.959 1.161,-2.201 1.12,-4.739 0.107,-6.832 l 0.04,-1.765 c 0,0 2.84,6.214 4.794,8.699 1.954,2.486 5.149,5.329 6.037,5.507 0.491,0.1 2.193,-0.055 2.193,-0.055 1.932,-1.132 4.387,-1.276 6.522,-0.161 3.308,1.713 4.592,5.778 2.868,9.084 -1.713,3.306 -5.783,4.587 -9.081,2.87 -1.358,-0.704 -2.375,-1.806 -2.982,-3.086 0,0 -1.663,-1.03 -2.006,-1.374 -0.532,-0.532 -1.421,-0.532 -1.242,1.068 0.178,1.597 4.083,10.296 6.569,12.075 1.651,1.177 4.029,3.192 4.029,3.192 1.49,-0.47 3.159,-0.37 4.656,0.409 2.994,1.555 4.158,5.239 2.596,8.233 -1.552,2.994 -5.239,4.154 -8.228,2.599 -1.8,-0.934 -2.938,-2.637 -3.223,-4.497 0,0 -2.537,-3.922 -4.091,-5.143 -2.486,-1.954 -7.99,-5.683 -9.589,-6.215 -1.598,-0.535 -2.664,5.504 -2.664,8.525 0,3.018 2.842,9.764 4.44,11.896 1.011,1.349 2.755,3.22 2.755,3.22 1.958,0.031 3.867,1.006 5.015,2.778 1.845,2.822 1.046,6.605 -1.785,8.445 -2.826,1.84 -6.607,1.04 -8.443,-1.785 -0.923,-1.415 -1.183,-3.066 -0.863,-4.593 0,0 -1.119,-3.715 -2.184,-5.222 -2.132,-3.018 -7.104,-8.346 -10.3,-10.125 -3.196,-1.775 -7.101,1.422 -8.167,4.439 -1.066,3.018 -0.356,12.078 0.355,15.274 C -1.018,-1.531 0,0 0,0 Z" /></g><g
           transform="translate(311.2109,397.1417)"
           id="g28"><path
             id="path30"
             style="fill:#ffffff;fill-opacity:1;fill-rule:nonzero;stroke:none"
             d="m 0,0 c 0,-17.522 -23.014,-31.729 -51.405,-31.729 -28.39,0 -51.404,14.207 -51.404,31.729 v 0.223 c 0,17.527 23.014,31.733 51.404,31.733 C -23.014,31.956 0,17.75 0,0.223 Z" /></g><g
           transform="translate(311.2109,397.1417)"
           id="g32"><path
             id="path34"
             style="fill:none;stroke:#44af35;stroke-width:2.99000001;stroke-linecap:butt;stroke-linejoin:miter;stroke-miterlimit:4;stroke-dasharray:none;stroke-opacity:1"
             d="m 0,0 c 0,-17.522 -23.014,-31.729 -51.405,-31.729 -28.39,0 -51.404,14.207 -51.404,31.729 v 0.223 c 0,17.527 23.014,31.733 51.404,31.733 C -23.014,31.956 0,17.75 0,0.223 Z" /></g><g
           transform="translate(303.3852,398.4737)"
           id="g36"><path
             id="path38"
             style="fill:#44af35;fill-opacity:1;fill-rule:nonzero;stroke:none"
             d="m 0,0 c 0,-14.563 -19.344,-26.373 -43.216,-26.373 -23.873,0 -43.222,11.81 -43.222,26.373 0,14.561 19.349,26.367 43.222,26.367 C -19.344,26.367 0,14.561 0,0" /></g><g
           transform="translate(302.6005,396.2491)"
           id="g40"><path
             id="path42"
             style="fill:#ffffff;fill-opacity:1;fill-rule:nonzero;stroke:none"
             d="m 0,0 c 0,-13.664 -18.977,-24.746 -42.385,-24.746 -23.415,0 -42.381,11.082 -42.381,24.746 0,13.667 18.966,24.74 42.381,24.74 C -18.977,24.74 0,13.667 0,0" /></g><g
           transform="translate(292.4965,398.4737)"
           id="g44"><path
             id="path46"
             style="fill:#44af35;fill-opacity:1;fill-rule:nonzero;stroke:none"
             d="m 0,0 c 0,-10.052 -14.465,-18.202 -32.313,-18.202 -17.847,0 -32.314,8.15 -32.314,18.202 0,10.049 14.467,18.199 32.314,18.199 C -14.465,18.199 0,10.049 0,0" /></g><g
           transform="translate(291.5976,394.6427)"
           id="g48"><path
             id="path50"
             style="fill:#ffffff;fill-opacity:1;fill-rule:nonzero;stroke:none"
             d="m 0,0 c 0,-9.901 -14.068,-17.935 -31.415,-17.935 -17.352,0 -31.412,8.034 -31.412,17.935 0,9.901 14.06,17.928 31.412,17.928 C -14.068,17.928 0,9.901 0,0" /></g><g
           transform="translate(273.1733,398.4737)"
           id="g52"><path
             id="path54"
             style="fill:#44af35;fill-opacity:1;fill-rule:nonzero;stroke:none"
             d="m 0,0 c 0,-4.428 -5.98,-8.016 -13.357,-8.016 -7.377,0 -13.356,3.588 -13.356,8.016 0,4.422 5.979,8.014 13.356,8.014 C -5.98,8.014 0,4.422 0,0" /></g><g
           transform="translate(270.8784,394.6324)"
           id="g56"><path
             id="path58"
             style="fill:#ffffff;fill-opacity:1;fill-rule:nonzero;stroke:none"
             d="m 0,0 c 0,-4.003 -4.947,-7.254 -11.048,-7.254 -6.102,0 -11.046,3.251 -11.046,7.254 0,4.006 4.944,7.254 11.046,7.254 C -4.947,7.254 0,4.006 0,0" /></g><g
           transform="translate(314.2817,395.422)"
           id="g60"><path
             id="path62"
             style="fill:#598e35;fill-opacity:1;fill-rule:nonzero;stroke:none"
             d="m 0,0 c -0.365,-2.65 -0.968,-6.406 -1.677,-8.446 -1.171,-3.367 -6.3,-12.009 -14.062,-16.99 -7.762,-4.981 -16.844,-10.842 -38.377,-10.842 h 0.01 c -21.533,0 -30.616,5.861 -38.378,10.842 -7.762,4.981 -12.891,13.623 -14.062,16.99 -0.709,2.04 -1.311,5.796 -1.677,8.446 l 2.662,-5.116 0.114,2.102 c -0.862,2.022 -0.842,4.411 0.259,6.495 1.881,3.612 6.281,4.93 9.818,2.96 3.54,-1.964 4.864,-6.489 2.974,-10.087 -0.941,-1.799 -4.175,-3.423 -4.175,-3.423 -0.245,-0.398 -0.556,-0.889 -0.822,-1.243 -0.532,-0.71 7.625,-6.207 14.196,-9.403 6.571,-3.197 14.751,-3.736 18.479,-2.671 3.728,1.064 4.792,2.307 5.326,2.66 0.196,0.131 0.387,0.76 0.387,0.76 -1.451,1.407 -2.359,3.436 -2.359,5.692 0,4.256 3.244,7.714 7.249,7.714 4.001,0 7.246,-3.458 7.246,-7.714 0,-2.149 -2.007,-5.154 -2.007,-5.154 -0.194,-0.628 -0.285,-1.167 -0.089,-1.298 0.533,-0.353 1.598,-1.596 5.326,-2.66 3.729,-1.065 11.909,-0.526 18.479,2.671 6.572,3.196 14.729,8.693 14.197,9.403 -0.266,0.354 -0.802,1.199 -0.802,1.199 -1.643,0.583 -3.081,1.775 -3.969,3.467 -1.89,3.598 -0.567,8.123 2.973,10.087 3.538,1.97 7.937,0.652 9.819,-2.96 1.161,-2.2 1.119,-4.738 0.107,-6.832 l 0.039,-1.765 c 0,0 1.399,3.06 2.907,5.744 z" /></g><g
           transform="translate(314.2817,395.422)"
           id="g64"><path
             id="path66"
             style="fill:none;stroke:#6fb92c;stroke-width:2.99000001;stroke-linecap:butt;stroke-linejoin:miter;stroke-miterlimit:4;stroke-dasharray:none;stroke-opacity:1"
             d="m 0,0 c -0.365,-2.65 -0.968,-6.406 -1.677,-8.446 -1.171,-3.367 -6.3,-12.009 -14.062,-16.99 -7.762,-4.981 -16.844,-10.842 -38.377,-10.842 h 0.01 c -21.533,0 -30.616,5.861 -38.378,10.842 -7.762,4.981 -12.891,13.623 -14.062,16.99 -0.709,2.04 -1.311,5.796 -1.677,8.446 l 2.662,-5.116 0.114,2.102 c -0.862,2.022 -0.842,4.411 0.259,6.495 1.881,3.612 6.281,4.93 9.818,2.96 3.54,-1.964 4.864,-6.489 2.974,-10.087 -0.941,-1.799 -4.175,-3.423 -4.175,-3.423 -0.245,-0.398 -0.556,-0.889 -0.822,-1.243 -0.532,-0.71 7.625,-6.207 14.196,-9.403 6.571,-3.197 14.751,-3.736 18.479,-2.671 3.728,1.064 4.792,2.307 5.326,2.66 0.196,0.131 0.387,0.76 0.387,0.76 -1.451,1.407 -2.359,3.436 -2.359,5.692 0,4.256 3.244,7.714 7.249,7.714 4.001,0 7.246,-3.458 7.246,-7.714 0,-2.149 -2.007,-5.154 -2.007,-5.154 -0.194,-0.628 -0.285,-1.167 -0.089,-1.298 0.533,-0.353 1.598,-1.596 5.326,-2.66 3.729,-1.065 11.909,-0.526 18.479,2.671 6.572,3.196 14.729,8.693 14.197,9.403 -0.266,0.354 -0.802,1.199 -0.802,1.199 -1.643,0.583 -3.081,1.775 -3.969,3.467 -1.89,3.598 -0.567,8.123 2.973,10.087 3.538,1.97 7.937,0.652 9.819,-2.96 1.161,-2.2 1.119,-4.738 0.107,-6.832 l 0.039,-1.765 c 0,0 1.399,3.06 2.907,5.744 z" /></g></g></g></svg>
